<svg width="79" height="61" viewBox="0 0 79 61" fill="none" xmlns="http://www.w3.org/2000/svg">
<path d="M19.2342 44.5369C17.9674 44.5369 17.3339 43.9006 17.3339 42.6282V30.2794C17.3339 29.6171 17.1534 28.9673 16.8119 28.3999L0.864763 1.90873C0.526934 1.27248 0.484705 0.805905 0.738077 0.508994C1.03368 0.169665 1.49819 0 2.13162 0H13.5333C14.1668 0 14.6524 0.169665 14.9902 0.508994C15.3703 0.805905 15.7292 1.27248 16.0671 1.90873L23.8235 14.9973C23.9236 15.1662 24.1053 15.2698 24.3016 15.2698C24.498 15.2698 24.6797 15.1662 24.7798 14.9973L32.5362 1.90873C32.8741 1.27248 33.2119 0.805905 33.5497 0.508994C33.9298 0.169665 34.4365 0 35.0699 0H46.4717C47.1051 0 47.5485 0.169665 47.8019 0.508994C48.0975 0.805905 48.0764 1.27248 47.7385 1.90873L31.7914 28.3999C31.4499 28.9673 31.2694 29.6171 31.2694 30.2794V42.6282C31.2694 43.9006 30.6359 44.5369 29.3691 44.5369H19.2342Z" fill="#CB21C8"/>
<path fill-rule="evenodd" clip-rule="evenodd" d="M36.2188 28.872C35.8782 29.4389 35.6982 30.0877 35.6982 30.749V58.5601C35.6982 59.8325 36.3305 60.4688 37.5952 60.4688H67.3134C70.8122 60.4688 73.4679 59.5568 75.2805 57.733C77.1352 55.8666 78.0626 53.1732 78.0626 49.6527V45.199C78.0626 43.4175 77.6832 41.9966 76.9244 40.9362C76.2078 39.8758 75.428 39.0487 74.5849 38.4548C73.623 37.7967 72.5733 37.3152 71.4358 37.0104C71.2441 36.959 71.1073 36.7876 71.1073 36.5891C71.1073 36.4103 71.219 36.2514 71.3841 36.1829C72.0789 35.8943 72.7243 35.5064 73.3203 35.0191C73.8683 34.5526 74.3742 33.9163 74.8378 33.1104C75.3015 32.2621 75.5334 31.2017 75.5334 29.9292V26.748C75.5334 23.2275 74.606 20.5553 72.7512 18.7314C70.9386 16.8651 68.283 15.9319 64.7842 15.9319H46.0564C44.7772 15.9319 43.5916 16.6026 42.9327 17.6991L36.2188 28.872ZM50.52 49.0164C50.0168 49.0164 49.6089 48.6085 49.6089 48.1054V44.2013C49.6089 43.6982 50.0168 43.2903 50.52 43.2903H62.255C63.5196 43.2903 64.1519 43.9265 64.1519 45.199V47.1077C64.1519 48.3802 63.5196 49.0164 62.255 49.0164H50.52ZM50.52 31.8379C50.0168 31.8379 49.6089 31.43 49.6089 30.9269V28.2953C49.6089 27.7921 50.0168 27.3842 50.52 27.3842H59.7258C60.9904 27.3842 61.6227 28.0205 61.6227 29.293V29.9292C61.6227 31.2017 60.9904 31.8379 59.7258 31.8379H50.52Z" fill="white"/>
</svg>
