<svg xmlns="http://www.w3.org/2000/svg" width="270px" height="110px" viewBox="0 0 270 110">
<polygon fill="#F9F9F9" points="118.257,13.203 115.443,13.203 115.443,15.822 118.59,15.822 118.59,16.608 114.495,16.608 
	114.495,9.343 118.43,9.343 118.43,10.13 115.443,10.13 115.443,12.426 118.257,12.426 "/>
<path fill="#F9F9F9" d="M119.687,15.466c0.421,0.27,1.024,0.475,1.671,0.475c0.959,0,1.52-0.507,1.52-1.242
	c0-0.667-0.389-1.065-1.369-1.433c-1.187-0.431-1.919-1.055-1.919-2.069c0-1.131,0.939-1.973,2.351-1.973
	c0.733,0,1.283,0.173,1.595,0.355l-0.259,0.766c-0.226-0.141-0.711-0.345-1.37-0.345c-0.991,0-1.368,0.594-1.368,1.089
	c0,0.679,0.442,1.013,1.443,1.401c1.23,0.474,1.844,1.068,1.844,2.134c0,1.121-0.819,2.103-2.533,2.103
	c-0.7,0-1.465-0.214-1.854-0.473L119.687,15.466z"/>
<polygon fill="#F9F9F9" points="126.498,10.142 124.287,10.142 124.287,9.343 129.666,9.343 129.666,10.142 127.446,10.142 
	127.446,16.608 126.498,16.608 "/>
<path fill="#F9F9F9" d="M129.567,16.049c0-0.389,0.27-0.681,0.646-0.681c0.378,0,0.636,0.281,0.636,0.681
	c0,0.388-0.258,0.678-0.658,0.678C129.827,16.727,129.567,16.437,129.567,16.049z"/>
<path fill="#F9F9F9" d="M134.006,16.608v-0.582l0.743-0.723c1.79-1.703,2.609-2.609,2.609-3.663c0-0.713-0.335-1.369-1.38-1.369
	c-0.636,0-1.163,0.322-1.487,0.592l-0.301-0.668c0.474-0.4,1.175-0.711,1.973-0.711c1.509,0,2.145,1.036,2.145,2.038
	c0,1.293-0.937,2.338-2.414,3.762l-0.55,0.516v0.022h3.138v0.787H134.006z"/>
<path fill="#F9F9F9" d="M140.396,13.138c0,1.822,0.56,2.857,1.423,2.857c0.96,0,1.422-1.131,1.422-2.92
	c0-1.725-0.431-2.858-1.422-2.858C140.998,10.216,140.396,11.229,140.396,13.138L140.396,13.138z M144.2,13.03
	c0,2.382-0.895,3.696-2.437,3.696c-1.368,0-2.306-1.281-2.328-3.598c0-2.363,1.023-3.645,2.447-3.645
	C143.348,9.484,144.2,10.799,144.2,13.03z"/>
<polygon fill="#F9F9F9" points="147.119,10.486 147.097,10.486 145.879,11.144 145.695,10.422 147.227,9.603 148.035,9.603 
	148.035,16.608 147.119,16.608 "/>
<path fill="#F9F9F9" d="M153.52,13.957v-2.339c0-0.366,0.011-0.732,0.03-1.098h-0.03c-0.218,0.409-0.389,0.709-0.583,1.034
	l-1.714,2.383v0.021H153.52L153.52,13.957z M153.52,16.608v-1.917h-3.256v-0.615l3.126-4.473h1.023v4.353h0.981v0.735h-0.981v1.917
	H153.52z"/>
<path fill-rule="evenodd" clip-rule="evenodd" fill="#F9F9F9" d="M60.148,11.747c0,0,3.196-2.26,10.278-1.339
	c7.083,0.922,10.423,8.104,8.926,12.409l-0.021,0.066c-1.219,1.771-3.531,5.189-8.962,6.139c-6.586,1.152-13.705-3.311-14.396-9.099
	C55.283,14.137,60.148,11.747,60.148,11.747L60.148,11.747z M134.91,30.963l11.225,3.392c-1.68-0.044-3.36-0.081-5.041-0.105
	c-7.032-1.811-16.632-4.29-21.029-5.458c-7.371-1.957-11.171-2.878-15.202-5.412c-4.031-2.534-5.817-3.109-6.91-2.994
	c-1.095,0.115-3.686,0.979-6.623,1.324c-2.162,0.254-4.323-1.02-5.313-1.71l0.001,0c0,0-2.202-2.031-3.8-4.406
	c-1.598-2.376-6.521-11.186-18.355-9.458c0,0-3.368,0.388-6.392,1.986c-7.255,3.196-10.278,2.592-10.278,2.592
	c-3.887,0-6.651-5.528-6.91-8.033C40.023,0.173,38.9,0,38.9,0c-0.95,0.087-1.986,3.023-0.604,7.342
	c1.382,4.318,7.342,6.823,7.342,6.823c4.146,2.246,5.441,5.614,5.441,5.614c4.148,8.725,11.287,13.849,19.925,12.583
	c8.637-1.268,9.674-7.141,14.625-7.602c4.952-0.46,12.438,1.266,12.438,1.266c7.563,1.824,11.641,5.784,13.721,8.749
	c-34.47,1.76-69.057,7.54-103.763,17.385l-8.081,31.72l22.73,17.566c83.606-23.902,138.395-24.07,222.976,0l24.295-17.566
	l-9.646-31.72c-30.59-8.75-61.271-14.315-92.047-16.668c12.107-3.125,62.575-16.148,63.166-16.296
	c0.671-0.168,2.156-3.247-2.016-2.771C225.203,16.509,134.91,30.963,134.91,30.963L134.91,30.963z M23.959,52.183
	c0.589,0.542,1.482,0.888,2.679,1.024c1.911-0.118,3.448-0.059,4.609,0.169c0.877,0.229,1.726,0.538,2.546,0.927
	c1.558,0.978,2.516,1.822,2.875,2.527c0.988,1.387,1.559,2.43,1.713,3.127c0.546,1.469,1.033,2.336,1.47,2.611l0.636,0.424
	l0.021,0.096c-0.432,0.41-0.934,0.672-1.493,0.801l-0.384,0.088c-1.057,0.244-2.158,0.119-3.313-0.365
	c-0.936,0.875-2.147,1.492-3.65,1.836c-0.533,0.123-1.037,0.166-1.532,0.133l-0.023-0.105c0.271-0.061,0.496-0.533,0.672-1.436
	c0.064-0.373,0.066-0.695,0.004-0.973l-0.039-0.176c-0.238-1.072-0.977-1.918-2.205-2.525c-0.334-0.143-0.6-0.182-0.81-0.135
	l-0.149,0.035c-0.498,0.113-0.821,0.6-0.972,1.451l-0.027,0.006c-0.598-0.504-1.19-0.689-1.793-0.553l-0.096,0.023
	c-1.301,0.299-1.939,1.518-1.93,3.67c0.009,0.373,0.081,0.861,0.216,1.471l0.863,3.889c0.333,1.5,1.307,2.412,2.921,2.736
	l0.024,0.105c-1.321,1-1.841,2.129-1.561,3.393l0.85,3.826c0.65,2.93,1.893,4.432,3.72,4.516l0.306-0.07
	c0.567-0.131,0.977-0.682,1.249-1.652c0.721,0.604,1.344,0.846,1.86,0.729c1.004-0.232,1.521-1.459,1.54-3.689l-0.074-0.332
	c-0.203-0.916-0.839-1.713-1.922-2.371l-0.006-0.027c0.313-0.447,0.911-0.777,1.802-0.98c1.433-0.33,2.771-0.135,4.029,0.576
	c0.296-1.066,1.43-1.832,3.387-2.281c0.978-0.225,1.693-0.188,2.151,0.102c-0.67,0.455-1.084,1.027-1.237,1.703
	c-0.105,0.309-0.082,1.285,0.085,2.904c0.201,0.908,0.081,2.309-0.359,4.215c-0.875,2.512-2.326,4.412-4.353,5.701
	c-0.571,0.361-1.611,0.93-3.123,1.689c-0.585,0.383-1.083,0.908-1.505,1.574l-0.079,0.018c-0.865-0.59-1.772-0.83-2.716-0.74
	c-2.121,0.166-3.819,0.043-5.084-0.363c-0.777-0.234-1.839-0.76-3.204-1.572c-1.292-0.977-2.24-2.07-2.852-3.295
	c-0.858-1.426-1.653-3.809-2.391-7.129c-0.388-1.002-0.822-1.801-1.316-2.41c-0.54-0.572-1.176-0.957-1.902-1.168l-0.018-0.078
	c1.356-1.172,1.795-2.83,1.32-4.977l-0.04-0.174c-0.813-3.66-0.963-6.449-0.458-8.352c0.504-2.234,1.7-4.166,3.574-5.816
	c0.981-0.748,2.315-1.521,4.012-2.314C23.093,53.82,23.585,53.148,23.959,52.183L23.959,52.183z M45.111,49.567l0.673-0.106
	c1.575-0.25,2.755,0.005,3.54,0.768c0.749-0.987,1.843-1.595,3.276-1.823c0.849-0.134,1.521-0.069,2.021,0.187
	c-0.9,0.938-1.263,2.019-1.077,3.247l1.607,10.666c0.336,2.227,1.18,3.559,2.514,3.998c0.275,0.082,0.42,0.141,0.425,0.176
	l0.007,0.045c-1.417,0.813-1.984,2.16-1.702,4.033l0.868,5.752c0.164,1.088,0.633,1.736,1.408,1.949l0.965,0.037l0.435-0.125
	l10.881-1.727c1.247-0.197,2.18-0.979,2.811-2.33l0.124-0.018c0.164,0.361,0.259,0.637,0.287,0.822l0.11,0.725
	c0.217,1.441-0.09,2.828-0.91,4.18l0.008,0.053c0.864,0.443,1.392,1.299,1.581,2.555c0.078,1.117,0.046,1.691-0.086,1.713
	c-0.771-0.672-1.555-0.945-2.325-0.824c-10.82,1.717-16.247,2.436-16.288,2.16c-0.429-0.021-0.99-0.377-1.673-1.064
	c-0.004-0.025-0.033-0.039-0.086-0.031c-1,1.354-2.787,2.242-5.361,2.652l-0.008-0.053c0.641-1.162,0.828-2.621,0.565-4.361
	l-1.525-10.117c-0.289-1.916-1.169-3.189-2.651-3.82l-0.295-0.217c1.41-0.984,1.959-2.51,1.646-4.586l-1.503-9.967
	c-0.27-1.794-0.917-3.076-1.939-3.854l-0.008-0.053C43.945,49.879,44.501,49.665,45.111,49.567L45.111,49.567z M78.213,44.509
	l0.245,0.02l0.312-0.033c1.496-0.158,2.775,0.139,3.829,0.89c0.901-0.994,2.087-1.559,3.548-1.713l0.57-0.06
	c1.362-0.144,2.771,0.004,4.235,0.443l0.01,0.107c-1.759,0.688-2.936,1.622-3.542,2.792c-0.302,0.688-0.433,1.286-0.381,1.811
	l0.989,10.161c0.15,1.549,0.903,2.621,2.265,3.213l0.008,0.08c-1.236,0.707-1.775,1.824-1.626,3.354l1.059,10.873
	c0.146,1.496,1.221,2.748,3.236,3.766c0.645,0.248,1.151,0.375,1.538,0.369l0.004,0.043c-0.604,0.451-1.52,0.746-2.757,0.877
	l-0.65,0.068c-2.208,0.232-3.838-0.152-4.889-1.146c0.034,0.346-0.333,0.834-1.116,1.465c-0.743,0.5-1.596,0.797-2.548,0.898
	l-0.624,0.066c-1.148,0.119-2.485-0.027-4.002-0.451l-0.006-0.072c0.912-0.238,1.857-0.879,2.845-1.908
	c0.727-0.85,1.024-1.959,0.891-3.33l-0.97-9.965c-0.153-1.574-0.453-2.531-0.89-2.854c-0.269-0.27-0.747-0.561-1.426-0.875
	c0.674-0.475,1.163-1.184,1.457-2.131c0.125-0.662,0.114-1.793-0.042-3.395l-0.659-6.77c-0.192-1.966-0.527-3.108-1-3.428
	c-0.573-0.712-1.764-1.297-3.562-1.754c-0.109-0.007-0.172-0.009-0.19-0.007l-0.005-0.054c0.985-0.697,2.228-1.134,3.724-1.292
	C78.183,44.558,78.216,44.537,78.213,44.509L78.213,44.509z M96.354,42.015l0.572-0.03c1.868-0.097,3.213,0.343,4.028,1.339
	c0.021,0.062,0.031,0.106,0.032,0.124l0.098-0.005c1.091-1.051,2.849-1.644,5.252-1.769l0.626-0.033
	c4.558-0.237,7.594-0.056,9.107,0.546c0.368,0.017,1.292,0.452,2.763,1.307c1.671,1.131,2.86,2.689,3.564,4.659
	c0.497,2.114,1.09,3.4,1.792,3.874l0.712,0.509c-0.768,0.461-1.268,1.104-1.492,1.922c-0.507,2.122-0.989,3.597-1.463,4.429
	c-0.492,1.037-1.369,2.068-2.614,3.1c-0.931,0.838-2.334,1.518-4.218,2.057c-0.473,0.248-3.038,0.578-7.67,0.973
	c-0.93,0.047-1.438,0.719-1.542,1.996l0.111,2.537c0.221,5.012,0.411,7.51,0.572,7.502c0.207,0.83,0.639,1.498,1.289,2.01
	c0.221,0.123,0.323,0.217,0.325,0.27l0.002,0.055c-0.527,0.232-1.085,0.369-1.658,0.398l-0.625,0.033
	c-1.404,0.072-2.543-0.387-3.42-1.371c-0.676,0.932-1.666,1.43-2.952,1.498l-0.68,0.033c-0.876,0.047-1.704-0.045-2.484-0.264
	l-0.002-0.053c1.137-0.848,1.664-2.102,1.592-3.756l-0.377-8.586c-0.027-0.615-0.045-1.439-0.056-2.494
	c-0.077-1.742-0.955-2.979-2.652-3.686l-0.002-0.057c0.662-0.436,1.223-0.902,1.667-1.402c0.531-0.762,0.774-1.553,0.738-2.375
	c-0.153-1.443-0.247-2.557-0.282-3.343l-0.342-7.8c-0.065-1.483-0.659-2.769-1.792-3.865C95.195,42.139,95.692,42.05,96.354,42.015
	L96.354,42.015z M104.948,50.64c-0.01-0.224,0.022-0.494,0.098-0.812c0.266-0.704,1.082-1.086,2.467-1.158l0.313-0.017
	c2.252-0.118,3.822,0.123,4.7,0.731c0.58,0.355,1.022,1.058,1.328,2.107l0.006,0.125c0.009,0.214-0.043,0.449-0.148,0.724
	c-0.382,0.467-0.794,0.874-1.236,1.211c0.957,0.585,1.442,1.213,1.472,1.893c0.002,0.07-0.01,0.188-0.04,0.342
	c-0.377,1.193-1.011,2.059-1.875,2.596c-0.526,0.457-1.875,0.752-4.056,0.865l-2.646,0.137L104.948,50.64L104.948,50.64z
	 M131.18,40.332l0.573,0.012c1.869,0.035,3.178,0.571,3.919,1.623c0.016,0.063,0.024,0.108,0.023,0.126l0.099,0.002
	c1.163-0.971,2.958-1.438,5.363-1.392l0.625,0.012c4.562,0.087,7.574,0.485,9.041,1.193c0.365,0.043,1.256,0.543,2.66,1.501
	c1.587,1.247,2.66,2.888,3.222,4.903c0.345,2.146,0.846,3.471,1.512,3.994l0.673,0.559c-0.798,0.405-1.343,1.013-1.624,1.813
	c-0.656,2.081-1.24,3.521-1.773,4.315c-0.564,1-1.512,1.967-2.827,2.908c-0.985,0.77-2.434,1.35-4.351,1.752
	c-0.489,0.215-3.07,0.361-7.716,0.424c-0.931-0.016-1.484,0.617-1.68,1.885l-0.069,2.539c-0.138,5.02-0.125,7.525,0.036,7.527
	c0.146,0.846,0.53,1.541,1.142,2.1c0.211,0.139,0.307,0.238,0.305,0.293l-0.001,0.053c-0.542,0.195-1.108,0.291-1.681,0.281
	l-0.626-0.012c-1.404-0.027-2.508-0.568-3.312-1.611c-0.739,0.881-1.763,1.307-3.05,1.283l-0.68-0.014
	c-0.876-0.016-1.696-0.166-2.458-0.441l0.002-0.053c1.193-0.766,1.808-1.98,1.853-3.635l0.235-8.594
	c0.017-0.619,0.057-1.441,0.121-2.496c0.048-1.744-0.74-3.039-2.381-3.867l0.001-0.055c0.691-0.389,1.284-0.816,1.762-1.281
	c0.583-0.723,0.882-1.496,0.904-2.318c-0.05-1.451-0.063-2.57-0.042-3.357l0.213-7.809c0.041-1.485-0.46-2.81-1.511-3.985
	C130.015,40.373,130.518,40.32,131.18,40.332L131.18,40.332z M139.133,49.551c0.007-0.224,0.059-0.491,0.156-0.803
	c0.314-0.683,1.156-1.007,2.542-0.98l0.313,0.006c2.253,0.043,3.801,0.395,4.633,1.064c0.553,0.395,0.944,1.127,1.175,2.197
	l-0.004,0.125c-0.005,0.215-0.074,0.446-0.198,0.711c-0.415,0.44-0.854,0.817-1.318,1.121c0.912,0.652,1.351,1.314,1.332,1.994
	c-0.002,0.072-0.023,0.189-0.063,0.34c-0.461,1.164-1.154,1.982-2.054,2.457c-0.557,0.42-1.923,0.617-4.104,0.574l-2.646-0.049
	L139.133,49.551L139.133,49.551z M189.132,42.311l0.125,0.011c0.1,0.639,0.12,1.233,0.069,1.769l-0.025,0.24
	c-0.106,1.096-0.527,2.164-1.267,3.203c0.524,0.784,0.727,1.738,0.615,2.87c-0.105,0.89-0.171,1.459-0.194,1.699l-0.101,0.198
	l-0.08-0.007c-1.424-1.037-2.742-1.615-3.963-1.725c-0.427-0.039-1.434-0.121-2.993-0.244c-2.108-0.209-3.452-0.339-4.049-0.394
	c-1.904-0.172-3.107,0.187-3.6,1.068c-0.146,0.409-0.247,0.867-0.296,1.375l-0.496,5.034l0.207,0.072l0.73,0.066
	c2.083,0.189,3.414-0.096,3.974-0.854c0.266-0.137,0.634-0.5,1.116-1.111c0.415,0.531,0.591,1.213,0.508,2.049
	c-0.117,1.186-0.675,2.287-1.673,3.301c0.661,0.951,0.92,2.152,0.777,3.594c-0.068,0.695-0.244,1.391-0.544,2.064l-0.026-0.002
	c-0.731-1.244-2.098-1.961-4.074-2.139l-1.46-0.133c-0.054-0.006-0.083,0.02-0.088,0.072l-0.592,6.006
	c-0.146,1.479,0.343,2.449,1.475,2.902l0.574,0.096c0.574,0.008,0.933,0.014,1.075,0.027l9.02,0.814
	c1.344,0.121,2.659-0.281,3.961-1.197c0.049,0.428,0.019,1.189-0.089,2.285l-0.005,0.053c-0.097,0.971-0.528,1.805-1.297,2.49
	c0.329,0.398,0.558,0.994,0.685,1.797c0.024,0.668-0.018,1.545-0.123,2.623l-0.016,0.16l-0.034,0.068
	c-0.884-0.691-2.002-1.098-3.383-1.223l-11.263-1.018c-1.709-0.154-3.212-0.939-4.536-2.361c-0.792,1.105-1.988,1.582-3.583,1.438
	l-0.364-0.033c-0.82-0.074-1.718-0.262-2.683-0.582l0.005-0.055c0.993-0.873,1.575-2.123,1.734-3.736l0.973-9.873
	c0.252-2.557-0.399-4.342-1.942-5.363l-0.04-0.137c1.777-0.91,2.729-2.092,2.874-3.553l0.724-7.342
	c0.207-2.103-0.166-4.159-1.128-6.152c0.395-0.09,0.953-0.103,1.683-0.037l0.419,0.038c2.093,0.189,3.544,0.779,4.354,1.76
	c1.494-1.141,3.168-1.628,5.011-1.461c0.365,0.033,0.929,0.065,1.68,0.098c2.339,0.247,4.571,0.467,6.7,0.659l0.854,0.078
	C186.178,43.76,187.543,43.309,189.132,42.311L189.132,42.311z M198.015,44.089l0.467,0.075c1.702,0.275,3.018,1.023,3.941,2.253
	c1.312-0.632,3.314-0.734,5.995-0.3l0.573,0.093c4.34,0.701,7.277,1.604,8.804,2.695c1.868,1.227,3.079,2.847,3.642,4.872
	c0.074,0.366,0.185,1.536,0.329,3.511c0.286,1.035,0.784,1.787,1.505,2.24l-0.013,0.07c-1.02,0.406-1.818,1.158-2.374,2.248
	c-0.637,1.775-1.493,3.133-2.573,4.057c-1.416,1.078-2.65,1.73-3.702,1.951c-0.915,0.316-1.914,0.381-2.98,0.209l-0.494-0.082
	l-0.005,0.027c0.504,0.082,1.093,0.449,1.778,1.113c0.312,0.35,0.743,1.699,1.308,4.041c0.26,0.869,0.88,1.648,1.862,2.316
	l0.106,0.018c-0.355,0.496-0.557,0.934-0.621,1.314l-0.026,0.15c-0.156,0.918,0.364,3.035,1.574,6.371
	c0.182,0.9,0.723,2.049,1.616,3.455c1.154,1.42,2.568,2.648,4.235,3.66c0.513,0.402,0.831,0.607,0.928,0.623l-0.013,0.08
	c-1.259,0.631-2.933,0.777-5.041,0.436l-0.309-0.049c-3.723-0.602-6.534-2.191-8.452-4.77c-0.507-0.699-1.007-2.188-1.502-4.445
	c-0.032-0.023-0.328-1.115-0.876-3.281c-0.361-0.693-0.909-1.1-1.633-1.217l-0.044-0.008l0.019-0.105
	c0.334-0.318,0.535-0.703,0.612-1.152l0.03-0.178c0.116-0.689-0.228-2.395-1.045-5.113c-0.183-0.902-0.541-1.613-1.095-2.146
	c-0.68-0.691-1.479-1.111-2.414-1.262l-1.886,11.119c-0.353,2.076-0.102,3.533,0.742,4.377l-0.021,0.133
	c-0.506,0.199-1.147,0.24-1.905,0.117c-1.562-0.252-2.739-0.842-3.516-1.766c-0.755,0.441-1.967,0.535-3.634,0.266
	c-0.652-0.105-1.244-0.256-1.754-0.449l0.009-0.051c1.071-0.816,1.745-2.006,2.009-3.561l1.352-7.967
	c0.169-0.998,0.413-2.328,0.729-3.975c0.242-1.43-0.141-2.689-1.162-3.781l0.009-0.053c1.349-0.734,2.12-1.699,2.321-2.891
	c0.12-1.025,0.26-2.01,0.421-2.963l1.182-6.96c0.342-2.014,0.071-3.837-0.824-5.451c0.004-0.018,0.023-0.023,0.058-0.019
	C196.735,43.937,197.326,43.978,198.015,44.089L198.015,44.089z M204.443,54.222c0.146-0.866,0.324-1.436,0.537-1.728
	c0.428-0.548,1.246-0.723,2.446-0.53l0.776,0.125c1.745,0.283,2.942,0.658,3.604,1.137c1.084,0.819,1.545,1.674,1.395,2.567
	c-0.104,0.617-0.533,1.275-1.281,1.943c0.772,0.57,1.101,1.203,0.984,1.893l-0.133,0.459c-0.508,1.016-1.114,1.652-1.811,1.912
	c-0.838,0.609-2.425,0.725-4.789,0.342l-3.024-0.488L204.443,54.222L204.443,54.222z M243.989,53.057
	c0.706,0.985,1.543,1.662,2.524,2.019c2.235,0.93,4.055,2.293,5.437,4.096c1.589,1.863,2.92,2.91,3.993,3.141l-0.018,0.08
	c-2.078,1.074-3.586,1.512-4.502,1.313l-0.62-0.133l-0.273-0.086c-0.202,0.908-0.987,1.721-2.365,2.441
	c-0.856,0.393-1.531,0.633-2.036,0.717l0.068-0.307c0.104-0.463,0.229-0.986,0.381-1.586c0.16-0.717-0.251-1.502-1.222-2.354
	c-0.613-0.617-1.173-0.977-1.68-1.086c-0.62-0.133-1.21,0.09-1.786,0.66l-0.025-0.004c-0.355-0.828-0.773-1.295-1.271-1.402
	c-0.588-0.07-1.261,0.113-2.001,0.561c-0.718,0.551-1.154,1.199-1.322,1.951l-0.058,0.254c-0.477,2.133,1.095,4.076,4.715,5.818
	c0.175,0.074,0.372,0.135,0.6,0.184c0.68,0.146,1.502,0.113,2.458-0.111l0.035,0.09c-0.021,0.096-0.051,0.145-0.085,0.137
	c-0.22,0.98,0.626,2.199,2.515,3.658c3.099,2.924,4.183,6.475,3.247,10.664c-1.077,4.836-4.169,7.738-9.266,8.723
	c-1.275,0.1-2.526,0.125-3.769,0.076c-0.933,0.156-1.649,0.543-2.164,1.166l-0.052-0.01c-0.372-0.797-0.949-1.406-1.709-1.818
	c-0.575-0.332-1.605-0.84-3.097-1.5c-1.125-0.656-2.028-1.326-2.712-2.033c-0.573-0.627-1.268-1.537-2.072-2.729
	c-0.745-0.766-1.95-1.639-3.629-2.605l0.019-0.078c2.287-1.35,4.029-1.9,5.216-1.645l0.21,0.045c0.035,0.006,0.248,0.08,0.646,0.221
	l0.056-0.254c0.372-1.662,1.69-2.816,3.969-3.471l0.043,0.008c-0.219,0.613-0.338,0.945-0.344,0.971
	c-0.362,1.627,0.252,3.299,1.854,5.02c0.652,0.682,1.277,1.084,1.87,1.209c0.62,0.135,1.212-0.059,1.794-0.576
	c0.263,0.754,0.678,1.193,1.262,1.318l0.149,0.031c0.567,0.123,1.392-0.131,2.476-0.76c0.785-0.527,1.297-1.344,1.545-2.453
	c0.403-1.811-0.287-3.188-2.054-4.127c-0.289-0.182-0.776-0.379-1.479-0.586c-0.586-0.125-1.316-0.09-2.19,0.098
	c0.125-1.137,0.107-1.838-0.048-2.082c-0.179-0.268-0.881-0.813-2.132-1.641c-1.368-1.047-2.582-2.209-3.619-3.467
	c-1.874-2.43-2.433-5.336-1.674-8.74l0.057-0.254c0.701-3.148,2.522-5.441,5.452-6.883c1.294-0.675,3.149-1.036,5.55-1.087
	C242.151,53.834,243.19,53.563,243.989,53.057z"/>
<path fill-rule="evenodd" clip-rule="evenodd" fill="#F9F9F9" d="M93.354,106.916c0,0.322-0.041,0.619-0.122,0.891
	c-0.084,0.271-0.197,0.514-0.346,0.734c-0.149,0.217-0.327,0.406-0.536,0.57c-0.208,0.162-0.443,0.301-0.706,0.41
	c-0.262,0.111-0.543,0.195-0.841,0.25c-0.3,0.057-0.641,0.084-1.027,0.084h-2.68c-0.122,0-0.238-0.041-0.346-0.123
	c-0.109-0.082-0.163-0.227-0.163-0.432v-9.146c0-0.203,0.054-0.348,0.163-0.432c0.107-0.08,0.224-0.121,0.346-0.121h2.331
	c0.614,0,1.117,0.057,1.509,0.174c0.389,0.115,0.716,0.287,0.979,0.508c0.263,0.223,0.46,0.494,0.592,0.816
	c0.133,0.322,0.197,0.688,0.197,1.092c0,0.244-0.03,0.477-0.086,0.699c-0.059,0.221-0.146,0.426-0.259,0.613
	c-0.114,0.189-0.254,0.357-0.427,0.502c-0.173,0.148-0.371,0.271-0.592,0.365c0.281,0.055,0.543,0.148,0.787,0.291
	c0.241,0.139,0.455,0.318,0.638,0.533c0.181,0.217,0.325,0.471,0.43,0.76C93.3,106.248,93.354,106.566,93.354,106.916
	L93.354,106.916z M186.583,101.451h15.384l-1.111,1.09h-14.272V101.451L186.583,101.451z M186.597,104.148h12.802l-1.11,1.09
	h-11.691V104.148L186.597,104.148z M186.583,106.916h10.214l-1.109,1.088h-9.104V106.916L186.583,106.916z M82.7,101.451H67.317
	l1.111,1.09H82.7V101.451L82.7,101.451z M82.687,104.148H69.885l1.11,1.09h11.691V104.148L82.687,104.148z M82.7,106.916H72.485
	l1.111,1.088H82.7V106.916L82.7,106.916z M183.3,102.605c0,0.514-0.084,0.977-0.255,1.391c-0.168,0.41-0.408,0.762-0.725,1.055
	c-0.313,0.289-0.698,0.512-1.155,0.672c-0.456,0.16-1,0.238-1.636,0.238h-1.162v3.689c0,0.041-0.012,0.08-0.035,0.109
	c-0.024,0.033-0.063,0.059-0.111,0.076c-0.052,0.02-0.119,0.035-0.205,0.049c-0.089,0.014-0.197,0.02-0.33,0.02
	c-0.132,0-0.241-0.006-0.33-0.02c-0.087-0.014-0.156-0.029-0.207-0.049c-0.055-0.018-0.09-0.043-0.112-0.076
	c-0.021-0.029-0.031-0.068-0.031-0.109v-9.463c0-0.209,0.057-0.361,0.167-0.451c0.11-0.088,0.233-0.135,0.37-0.135h2.193
	c0.222,0,0.435,0.008,0.639,0.027c0.202,0.02,0.442,0.059,0.719,0.119c0.279,0.063,0.56,0.176,0.849,0.34
	c0.286,0.168,0.53,0.375,0.732,0.617c0.2,0.244,0.354,0.525,0.463,0.844C183.244,101.867,183.3,102.223,183.3,102.605L183.3,102.605
	z M181.871,102.715c0-0.42-0.078-0.77-0.232-1.051c-0.157-0.277-0.348-0.488-0.582-0.627c-0.229-0.135-0.467-0.225-0.711-0.26
	c-0.246-0.037-0.486-0.057-0.719-0.057h-1.26v4.121h1.23c0.41,0,0.754-0.055,1.024-0.16c0.272-0.104,0.501-0.25,0.687-0.439
	c0.185-0.188,0.324-0.412,0.419-0.674C181.822,103.305,181.871,103.021,181.871,102.715L181.871,102.715z M174.111,104.609
	c0,0.83-0.098,1.576-0.292,2.242c-0.197,0.664-0.49,1.229-0.877,1.697c-0.389,0.465-0.876,0.824-1.463,1.076
	c-0.586,0.252-1.271,0.375-2.052,0.375c-0.771,0-1.437-0.113-1.998-0.342c-0.565-0.23-1.028-0.564-1.396-1.004
	c-0.368-0.438-0.641-0.982-0.818-1.631c-0.183-0.648-0.271-1.395-0.271-2.238c0-0.809,0.098-1.543,0.292-2.205
	c0.198-0.658,0.489-1.219,0.882-1.682c0.389-0.459,0.879-0.816,1.465-1.066c0.585-0.252,1.27-0.377,2.053-0.377
	c0.755,0,1.412,0.115,1.972,0.342s1.027,0.557,1.397,0.992c0.374,0.436,0.651,0.973,0.833,1.617
	C174.02,103.047,174.111,103.783,174.111,104.609L174.111,104.609z M172.666,104.703c0-0.578-0.051-1.119-0.153-1.615
	c-0.103-0.498-0.272-0.93-0.514-1.299c-0.24-0.365-0.56-0.652-0.959-0.857c-0.403-0.205-0.898-0.307-1.488-0.307
	c-0.592,0-1.086,0.109-1.487,0.332c-0.399,0.221-0.727,0.516-0.975,0.885c-0.252,0.369-0.431,0.799-0.539,1.295
	c-0.107,0.49-0.163,1.008-0.163,1.551c0,0.604,0.053,1.154,0.151,1.66c0.101,0.508,0.269,0.943,0.506,1.311
	c0.235,0.365,0.555,0.65,0.952,0.854c0.397,0.201,0.897,0.305,1.498,0.305c0.598,0,1.098-0.109,1.504-0.332
	c0.405-0.223,0.732-0.52,0.981-0.898c0.246-0.375,0.424-0.814,0.529-1.309S172.666,105.258,172.666,104.703L172.666,104.703z
	 M162.07,109.65c0,0.041-0.011,0.08-0.032,0.109c-0.022,0.033-0.058,0.059-0.111,0.076c-0.055,0.02-0.124,0.035-0.211,0.049
	c-0.089,0.014-0.194,0.02-0.321,0.02c-0.141,0-0.252-0.006-0.336-0.02c-0.086-0.014-0.153-0.029-0.208-0.049
	c-0.054-0.018-0.09-0.043-0.111-0.076c-0.021-0.029-0.032-0.068-0.032-0.109v-4.549h-4.656v4.549c0,0.041-0.01,0.08-0.031,0.109
	c-0.022,0.033-0.057,0.059-0.112,0.076c-0.051,0.02-0.121,0.035-0.207,0.049c-0.089,0.014-0.198,0.02-0.33,0.02
	c-0.128,0-0.235-0.006-0.325-0.02c-0.089-0.014-0.161-0.029-0.213-0.049c-0.055-0.018-0.089-0.043-0.111-0.076
	c-0.021-0.029-0.033-0.068-0.033-0.109v-9.844c0-0.043,0.012-0.08,0.033-0.111c0.022-0.031,0.057-0.055,0.111-0.074
	c0.052-0.02,0.124-0.035,0.213-0.049c0.09-0.014,0.197-0.02,0.325-0.02c0.132,0,0.241,0.006,0.33,0.02
	c0.086,0.014,0.156,0.029,0.207,0.049c0.056,0.02,0.09,0.043,0.112,0.074c0.021,0.033,0.031,0.068,0.031,0.111v4.111h4.656v-4.111
	c0-0.043,0.012-0.078,0.032-0.111c0.021-0.031,0.058-0.055,0.111-0.074c0.055-0.02,0.122-0.035,0.208-0.049
	c0.084-0.014,0.195-0.02,0.336-0.02c0.127,0,0.232,0.006,0.321,0.02c0.087,0.014,0.156,0.029,0.211,0.049
	c0.054,0.02,0.089,0.043,0.111,0.074c0.021,0.031,0.032,0.068,0.032,0.111V109.65L162.07,109.65z M152.017,106.979
	c0,0.479-0.089,0.906-0.265,1.281c-0.179,0.373-0.425,0.691-0.738,0.955c-0.313,0.258-0.685,0.457-1.108,0.59
	c-0.427,0.131-0.884,0.195-1.376,0.195c-0.344,0-0.663-0.029-0.956-0.086c-0.294-0.059-0.557-0.133-0.786-0.217
	s-0.422-0.174-0.579-0.262c-0.153-0.092-0.264-0.168-0.324-0.232c-0.062-0.063-0.104-0.143-0.135-0.24s-0.042-0.229-0.042-0.391
	c0-0.115,0.005-0.213,0.015-0.287c0.011-0.076,0.027-0.139,0.046-0.186c0.022-0.049,0.049-0.082,0.081-0.1
	c0.032-0.02,0.068-0.027,0.111-0.027c0.073,0,0.178,0.045,0.314,0.135c0.132,0.09,0.305,0.188,0.519,0.293
	c0.211,0.104,0.465,0.203,0.765,0.295c0.298,0.092,0.644,0.137,1.033,0.137c0.298,0,0.568-0.041,0.814-0.119
	s0.456-0.189,0.633-0.334c0.178-0.145,0.313-0.322,0.407-0.533c0.096-0.211,0.144-0.451,0.144-0.719
	c0-0.289-0.064-0.537-0.196-0.744c-0.134-0.205-0.307-0.387-0.522-0.543c-0.219-0.154-0.465-0.297-0.741-0.428
	c-0.278-0.129-0.563-0.258-0.852-0.395c-0.289-0.135-0.573-0.283-0.847-0.449c-0.275-0.162-0.521-0.354-0.738-0.576
	c-0.216-0.221-0.392-0.48-0.524-0.779c-0.135-0.299-0.203-0.656-0.203-1.072c0-0.43,0.079-0.811,0.234-1.146
	c0.156-0.332,0.372-0.613,0.647-0.84c0.279-0.229,0.608-0.402,0.99-0.52c0.383-0.119,0.795-0.18,1.238-0.18
	c0.227,0,0.454,0.02,0.684,0.061c0.23,0.041,0.446,0.092,0.648,0.158c0.204,0.066,0.386,0.143,0.545,0.223
	c0.156,0.082,0.262,0.148,0.311,0.197c0.051,0.053,0.083,0.09,0.101,0.119c0.015,0.029,0.026,0.068,0.037,0.109
	c0.011,0.049,0.02,0.102,0.024,0.166c0.005,0.063,0.008,0.145,0.008,0.246c0,0.096-0.003,0.18-0.01,0.254
	c-0.009,0.074-0.022,0.135-0.039,0.188c-0.014,0.049-0.038,0.086-0.064,0.109c-0.03,0.025-0.063,0.035-0.101,0.035
	c-0.06,0-0.148-0.035-0.272-0.109c-0.125-0.076-0.276-0.158-0.457-0.252c-0.179-0.092-0.393-0.176-0.639-0.25
	c-0.243-0.08-0.519-0.117-0.827-0.117c-0.284,0-0.532,0.037-0.743,0.113c-0.211,0.078-0.387,0.178-0.525,0.307
	c-0.135,0.125-0.237,0.273-0.308,0.447c-0.067,0.176-0.104,0.359-0.104,0.555c0,0.285,0.065,0.529,0.198,0.734
	c0.132,0.207,0.308,0.389,0.527,0.547c0.222,0.16,0.47,0.303,0.751,0.436c0.279,0.133,0.565,0.266,0.857,0.4
	c0.29,0.135,0.576,0.281,0.854,0.443c0.281,0.16,0.53,0.352,0.751,0.57c0.22,0.219,0.396,0.477,0.531,0.775
	C151.949,106.219,152.017,106.57,152.017,106.979L152.017,106.979z M140.863,109.65c0,0.041-0.008,0.078-0.024,0.109
	c-0.016,0.033-0.048,0.061-0.103,0.082c-0.051,0.018-0.127,0.035-0.222,0.045c-0.095,0.012-0.222,0.018-0.379,0.018
	c-0.138,0-0.251-0.006-0.338-0.018c-0.087-0.01-0.156-0.027-0.211-0.051c-0.051-0.025-0.092-0.057-0.121-0.1
	c-0.03-0.041-0.055-0.096-0.076-0.156l-0.94-2.42c-0.111-0.277-0.229-0.529-0.347-0.758c-0.119-0.23-0.26-0.428-0.425-0.596
	c-0.162-0.166-0.355-0.295-0.578-0.389c-0.222-0.092-0.489-0.139-0.801-0.139h-0.911v4.371c0,0.041-0.011,0.078-0.036,0.109
	c-0.024,0.033-0.062,0.059-0.11,0.076c-0.052,0.02-0.119,0.035-0.206,0.049c-0.089,0.014-0.197,0.02-0.33,0.02
	s-0.241-0.006-0.33-0.02c-0.086-0.014-0.157-0.029-0.208-0.049c-0.054-0.018-0.089-0.043-0.111-0.076
	c-0.021-0.029-0.032-0.068-0.032-0.109v-9.496c0-0.203,0.054-0.348,0.163-0.432c0.108-0.08,0.224-0.121,0.346-0.121h2.179
	c0.26,0,0.474,0.006,0.646,0.02c0.171,0.014,0.325,0.029,0.463,0.043c0.397,0.07,0.746,0.178,1.052,0.324
	c0.304,0.148,0.557,0.334,0.763,0.563c0.208,0.227,0.362,0.486,0.465,0.781c0.104,0.291,0.154,0.617,0.154,0.971
	c0,0.342-0.046,0.648-0.138,0.922c-0.095,0.271-0.227,0.512-0.4,0.719c-0.176,0.209-0.383,0.391-0.627,0.545
	c-0.243,0.15-0.514,0.279-0.817,0.385c0.171,0.078,0.322,0.168,0.46,0.283c0.138,0.113,0.266,0.25,0.384,0.406
	c0.119,0.16,0.233,0.344,0.338,0.551c0.105,0.205,0.211,0.438,0.317,0.697l0.919,2.26c0.073,0.189,0.121,0.324,0.141,0.4
	C140.853,109.547,140.863,109.605,140.863,109.65L140.863,109.65z M138.812,102.439c0-0.398-0.09-0.74-0.271-1.018
	c-0.177-0.275-0.478-0.477-0.902-0.598c-0.133-0.037-0.281-0.063-0.446-0.078c-0.168-0.018-0.384-0.025-0.654-0.025h-1.149v3.457
	h1.331c0.359,0,0.671-0.045,0.932-0.131c0.261-0.09,0.48-0.211,0.652-0.365c0.176-0.156,0.304-0.34,0.388-0.551
	C138.771,102.92,138.812,102.689,138.812,102.439L138.812,102.439z M131.081,109.289c0,0.098-0.006,0.182-0.017,0.252
	c-0.011,0.07-0.029,0.131-0.054,0.18c-0.027,0.047-0.057,0.08-0.092,0.102c-0.035,0.021-0.073,0.033-0.116,0.033h-4.924
	c-0.122,0-0.238-0.041-0.346-0.123s-0.163-0.227-0.163-0.432v-9.146c0-0.203,0.054-0.348,0.163-0.432
	c0.108-0.08,0.225-0.121,0.346-0.121h4.867c0.043,0,0.081,0.01,0.116,0.033c0.035,0.021,0.063,0.053,0.084,0.102
	c0.019,0.049,0.038,0.109,0.052,0.178c0.013,0.072,0.018,0.16,0.018,0.266c0,0.098-0.005,0.18-0.018,0.252
	c-0.014,0.07-0.033,0.129-0.052,0.176c-0.021,0.043-0.052,0.076-0.084,0.098c-0.035,0.021-0.073,0.033-0.116,0.033h-4.012v3.211
	h3.444c0.043,0,0.081,0.01,0.116,0.035c0.033,0.025,0.063,0.057,0.087,0.1s0.04,0.102,0.051,0.174
	c0.011,0.076,0.016,0.162,0.016,0.262c0,0.098-0.005,0.18-0.016,0.246c-0.011,0.07-0.027,0.125-0.051,0.168
	s-0.054,0.072-0.087,0.092c-0.035,0.02-0.073,0.027-0.116,0.027h-3.444v3.666h4.069c0.043,0,0.081,0.012,0.116,0.033
	c0.035,0.021,0.064,0.053,0.092,0.098c0.024,0.045,0.043,0.104,0.054,0.176C131.075,109.096,131.081,109.184,131.081,109.289
	L131.081,109.289z M122.576,106.916c0,0.322-0.04,0.619-0.122,0.891c-0.084,0.271-0.197,0.514-0.346,0.734
	c-0.149,0.217-0.327,0.406-0.536,0.57c-0.208,0.162-0.443,0.301-0.705,0.41c-0.263,0.111-0.544,0.195-0.841,0.25
	c-0.301,0.057-0.641,0.084-1.028,0.084h-2.679c-0.122,0-0.238-0.041-0.347-0.123c-0.108-0.082-0.162-0.227-0.162-0.432v-9.146
	c0-0.203,0.054-0.348,0.162-0.432c0.108-0.08,0.225-0.121,0.347-0.121h2.331c0.614,0,1.116,0.057,1.509,0.174
	c0.389,0.115,0.716,0.287,0.979,0.508c0.263,0.223,0.46,0.494,0.592,0.816s0.198,0.688,0.198,1.092c0,0.244-0.031,0.477-0.087,0.699
	c-0.06,0.221-0.146,0.426-0.26,0.613c-0.113,0.189-0.254,0.357-0.427,0.502c-0.173,0.148-0.37,0.271-0.592,0.365
	c0.281,0.055,0.543,0.148,0.787,0.291c0.241,0.139,0.455,0.318,0.638,0.533c0.181,0.217,0.324,0.471,0.43,0.76
	C122.522,106.248,122.576,106.566,122.576,106.916L122.576,106.916z M120.532,102.324c0-0.248-0.035-0.473-0.103-0.676
	c-0.068-0.201-0.175-0.369-0.324-0.512c-0.148-0.139-0.341-0.246-0.579-0.322c-0.238-0.072-0.551-0.109-0.943-0.109h-1.409v3.324
	h1.552c0.354,0,0.638-0.045,0.857-0.137c0.216-0.094,0.395-0.219,0.538-0.373c0.141-0.156,0.246-0.34,0.311-0.549
	C120.5,102.762,120.532,102.547,120.532,102.324L120.532,102.324z M121.149,106.998c0-0.307-0.049-0.576-0.146-0.809
	c-0.097-0.234-0.24-0.428-0.427-0.588c-0.189-0.16-0.421-0.279-0.706-0.363c-0.281-0.08-0.638-0.121-1.065-0.121h-1.63v3.617h1.979
	c0.312,0,0.584-0.037,0.816-0.109c0.233-0.074,0.436-0.184,0.614-0.33c0.176-0.146,0.314-0.328,0.414-0.545
	C121.097,107.535,121.149,107.283,121.149,106.998L121.149,106.998z M113.107,109.65c0,0.041-0.008,0.078-0.024,0.109
	c-0.017,0.033-0.049,0.061-0.103,0.082c-0.051,0.018-0.126,0.035-0.222,0.045c-0.094,0.012-0.222,0.018-0.378,0.018
	c-0.137,0-0.251-0.006-0.338-0.018c-0.086-0.01-0.157-0.027-0.211-0.051c-0.051-0.025-0.092-0.057-0.122-0.1
	c-0.03-0.041-0.054-0.096-0.075-0.156l-0.941-2.42c-0.111-0.277-0.227-0.529-0.346-0.758c-0.119-0.23-0.26-0.428-0.425-0.596
	c-0.162-0.166-0.356-0.295-0.578-0.389c-0.222-0.092-0.489-0.139-0.801-0.139h-0.911v4.371c0,0.041-0.011,0.078-0.035,0.109
	c-0.024,0.033-0.062,0.059-0.11,0.076c-0.052,0.02-0.119,0.035-0.206,0.049c-0.09,0.014-0.197,0.02-0.33,0.02
	s-0.241-0.006-0.33-0.02c-0.086-0.014-0.157-0.029-0.208-0.049c-0.053-0.018-0.088-0.043-0.11-0.076
	c-0.021-0.029-0.032-0.068-0.032-0.109v-9.496c0-0.203,0.054-0.348,0.162-0.432c0.108-0.08,0.224-0.121,0.346-0.121h2.179
	c0.26,0,0.474,0.006,0.646,0.02c0.17,0.014,0.325,0.029,0.462,0.043c0.397,0.07,0.747,0.178,1.052,0.324
	c0.302,0.148,0.557,0.334,0.762,0.563c0.208,0.227,0.363,0.486,0.465,0.781c0.103,0.291,0.154,0.617,0.154,0.971
	c0,0.342-0.045,0.648-0.137,0.922c-0.095,0.271-0.228,0.512-0.4,0.719c-0.176,0.209-0.384,0.391-0.627,0.545
	c-0.244,0.15-0.514,0.279-0.816,0.385c0.17,0.078,0.322,0.168,0.459,0.283c0.138,0.113,0.265,0.25,0.384,0.406
	c0.119,0.16,0.232,0.344,0.337,0.551c0.106,0.205,0.211,0.438,0.317,0.697l0.919,2.26c0.073,0.189,0.122,0.324,0.14,0.4
	C113.097,109.547,113.107,109.605,113.107,109.65L113.107,109.65z M111.054,102.439c0-0.398-0.089-0.74-0.27-1.018
	c-0.178-0.275-0.478-0.477-0.903-0.598c-0.132-0.037-0.281-0.063-0.446-0.078c-0.167-0.018-0.384-0.025-0.654-0.025h-1.15v3.457
	h1.331c0.359,0,0.67-0.045,0.933-0.131c0.26-0.09,0.479-0.211,0.652-0.365c0.176-0.156,0.303-0.34,0.387-0.551
	C111.014,102.92,111.054,102.689,111.054,102.439L111.054,102.439z M103.824,109.373c0.04,0.117,0.065,0.209,0.068,0.281
	c0.002,0.07-0.02,0.125-0.06,0.164c-0.043,0.033-0.114,0.059-0.211,0.068c-0.097,0.012-0.227,0.018-0.392,0.018
	c-0.162,0-0.294-0.004-0.392-0.012c-0.098-0.008-0.17-0.021-0.222-0.041c-0.051-0.018-0.086-0.043-0.111-0.076
	c-0.024-0.031-0.046-0.07-0.067-0.117l-0.879-2.496h-4.261l-0.841,2.463c-0.017,0.049-0.035,0.09-0.062,0.125
	c-0.028,0.035-0.066,0.061-0.117,0.086c-0.049,0.023-0.122,0.041-0.213,0.051c-0.092,0.012-0.211,0.018-0.36,0.018
	c-0.154,0-0.278-0.006-0.375-0.02c-0.098-0.014-0.168-0.039-0.206-0.076c-0.041-0.037-0.059-0.092-0.057-0.162
	c0.002-0.072,0.024-0.164,0.067-0.281l3.437-9.525c0.021-0.061,0.051-0.107,0.083-0.145c0.035-0.037,0.084-0.066,0.151-0.086
	c0.065-0.02,0.149-0.037,0.254-0.045c0.102-0.008,0.232-0.012,0.392-0.012c0.167,0,0.308,0.004,0.418,0.012
	c0.111,0.008,0.2,0.025,0.268,0.045c0.07,0.02,0.122,0.053,0.16,0.09c0.038,0.041,0.067,0.09,0.086,0.146L103.824,109.373
	L103.824,109.373z M99.412,100.965h-0.008l-1.766,5.109h3.563L99.412,100.965L99.412,100.965z M91.31,102.324
	c0-0.248-0.035-0.473-0.103-0.676c-0.067-0.201-0.176-0.369-0.325-0.512c-0.148-0.139-0.341-0.246-0.579-0.322
	c-0.238-0.072-0.552-0.109-0.944-0.109h-1.408v3.324h1.552c0.354,0,0.639-0.045,0.857-0.137c0.217-0.094,0.395-0.219,0.539-0.373
	c0.14-0.156,0.246-0.34,0.311-0.549C91.277,102.762,91.31,102.547,91.31,102.324L91.31,102.324z M91.926,106.998
	c0-0.307-0.048-0.576-0.146-0.809c-0.098-0.234-0.241-0.428-0.427-0.588c-0.19-0.16-0.422-0.279-0.706-0.363
	c-0.281-0.08-0.639-0.121-1.066-0.121h-1.63v3.617h1.979c0.311,0,0.584-0.037,0.816-0.109c0.233-0.074,0.436-0.184,0.614-0.33
	c0.176-0.146,0.314-0.328,0.414-0.545C91.875,107.535,91.926,107.283,91.926,106.998z"/>
</svg>
